<svg width="48" height="48" viewBox="0 0 48 48" fill="none" xmlns="http://www.w3.org/2000/svg">
<path d="M32.5711 14.7097C31.1676 6.06774 27.8572 0 24.0048 0C20.1525 0 16.8421 6.06774 15.4386 14.7097H32.5711ZM14.7126 24C14.7126 26.1484 14.8288 28.2097 15.0321 30.1935H32.9679C33.1712 28.2097 33.2874 26.1484 33.2874 24C33.2874 21.8516 33.1712 19.7903 32.9679 17.8065H15.0321C14.8288 19.7903 14.7126 21.8516 14.7126 24ZM46.1416 14.7097C43.3733 8.13871 37.7689 3.05806 30.8482 1.00645C33.2099 4.27742 34.8361 9.20323 35.6878 14.7097H46.1416ZM17.1518 1.00645C10.2408 3.05806 4.62674 8.13871 1.86812 14.7097H12.3218C13.1639 9.20323 14.7901 4.27742 17.1518 1.00645ZM47.1773 17.8065H36.075C36.2783 19.8387 36.3944 21.9194 36.3944 24C36.3944 26.0806 36.2783 28.1613 36.075 30.1935H47.1676C47.6999 28.2097 48 26.1484 48 24C48 21.8516 47.6999 19.7903 47.1773 17.8065ZM11.6152 24C11.6152 21.9194 11.7314 19.8387 11.9347 17.8065H0.832426C0.30974 19.7903 0 21.8516 0 24C0 26.1484 0.30974 28.2097 0.832426 30.1935H11.925C11.7314 28.1613 11.6152 26.0806 11.6152 24ZM15.4386 33.2903C16.8421 41.9323 20.1525 48 24.0048 48C27.8572 48 31.1676 41.9323 32.5711 33.2903H15.4386ZM30.8578 46.9935C37.7689 44.9419 43.3829 39.8613 46.1512 33.2903H35.6975C34.8457 38.7968 33.2196 43.7226 30.8578 46.9935ZM1.86812 33.2903C4.63642 39.8613 10.2408 44.9419 17.1615 46.9935C14.7998 43.7226 13.1736 38.7968 12.3218 33.2903H1.86812Z" fill="black"/>
</svg>
