<svg width="49" height="49" viewBox="0 0 49 49" fill="none" xmlns="http://www.w3.org/2000/svg">
<path d="M24.1666 0.234467C10.9182 0.234467 0.166565 10.9861 0.166565 24.2345C0.166565 37.4829 10.9182 48.2345 24.1666 48.2345C37.415 48.2345 48.1666 37.4829 48.1666 24.2345C48.1666 10.9861 37.415 0.234467 24.1666 0.234467ZM33.9117 35.5474C33.5053 35.5474 33.2537 35.4216 32.8762 35.199C26.8375 31.5603 19.8117 31.4054 12.873 32.828C12.4956 32.9248 12.002 33.0796 11.7214 33.0796C10.7827 33.0796 10.1924 32.3345 10.1924 31.5506C10.1924 30.5538 10.7827 30.0796 11.5085 29.9248C19.4343 28.1732 27.5343 28.328 34.444 32.4603C35.0343 32.8377 35.3827 33.1764 35.3827 34.057C35.3827 34.9377 34.6956 35.5474 33.9117 35.5474ZM36.515 29.199C36.0117 29.199 35.673 28.9764 35.3246 28.7925C29.2762 25.2119 20.2569 23.77 12.2343 25.9474C11.7698 26.0732 11.5182 26.199 11.0827 26.199C10.0472 26.199 9.20527 25.357 9.20527 24.3216C9.20527 23.2861 9.7085 22.599 10.7053 22.3183C13.3956 21.5635 16.144 21.0022 20.1698 21.0022C26.4504 21.0022 32.5182 22.5603 37.2988 25.4054C38.0827 25.87 38.3924 26.4699 38.3924 27.3119C38.3827 28.357 37.5698 29.199 36.515 29.199ZM39.515 21.8248C39.0117 21.8248 38.702 21.699 38.2666 21.4474C31.3762 17.3345 19.0569 16.3474 11.0827 18.5732C10.7343 18.6699 10.2988 18.8248 9.83431 18.8248C8.55689 18.8248 7.57947 17.828 7.57947 16.5409C7.57947 15.2248 8.39237 14.4796 9.26334 14.228C12.6698 13.2312 16.4827 12.757 20.6343 12.757C27.6988 12.757 35.102 14.228 40.5117 17.3829C41.2666 17.8183 41.7601 18.4183 41.7601 19.57C41.7601 20.8861 40.6956 21.8248 39.515 21.8248Z" fill="black"/>
</svg>
